<svg width="152" height="72" viewBox="0 0 152 72" fill="none" xmlns="http://www.w3.org/2000/svg">
<g clip-path="url(#clip0)">
<path d="M15.3419 46.4415C18.2663 44.597 18.3879 39.5556 15.6135 35.1812C12.8392 30.8068 8.21945 28.7558 5.29506 30.6003C2.37068 32.4447 2.24906 37.4861 5.02341 41.8605C7.79776 46.235 12.4175 48.2859 15.3419 46.4415Z" fill="white"/>
<path d="M19.2345 29.2002C22.1588 27.3558 22.2805 22.3144 19.5061 17.94C16.7318 13.5656 12.112 11.5146 9.18764 13.3591C6.26326 15.2035 6.14163 20.2449 8.91598 24.6193C11.6903 28.9937 16.3101 31.0447 19.2345 29.2002Z" fill="white"/>
<path d="M35.1173 19.1807C38.0417 17.3363 38.1633 12.2949 35.3889 7.92046C32.6146 3.54604 27.9948 1.49509 25.0705 3.33953C22.1461 5.18398 22.0244 10.2254 24.7988 14.5998C27.5731 18.9742 32.1929 21.0252 35.1173 19.1807Z" fill="white"/>
<path d="M52.4102 23.0645C55.3346 21.2201 55.4562 16.1787 52.6819 11.8042C49.9075 7.42983 45.2878 5.37888 42.3634 7.22332C39.439 9.06777 39.3174 14.1092 42.0918 18.4836C44.8661 22.858 49.4859 24.9089 52.4102 23.0645Z" fill="white"/>
<path d="M49.9689 32.0387C56.3916 40.1789 47.3651 40.0477 40.5667 45.3818C33.7681 50.7161 32.4507 77.8439 26.0281 69.7036C19.6055 61.5634 19.2318 32.2922 26.0302 26.9579C32.8286 21.6237 43.5463 23.8983 49.9689 32.0387Z" fill="white"/>
<path d="M53.8926 62.3265C52.9527 62.3265 52.0926 62.1497 51.3124 61.796C50.5498 61.4246 49.9469 60.9295 49.5036 60.3105C49.078 59.6739 48.8652 58.9755 48.8652 58.2149C48.8652 56.9947 49.3617 56.0132 50.3548 55.2705C51.3656 54.5278 52.7488 54.015 54.5044 53.732L57.8294 53.228V52.8566C57.8294 52.1847 57.6875 51.6894 57.4038 51.3711C57.12 51.0528 56.6412 50.8936 55.9674 50.8936C55.5595 50.8936 55.2226 50.9645 54.9566 51.1059C54.6906 51.2474 54.4157 51.442 54.132 51.6894C53.8837 51.9016 53.6975 52.0432 53.5734 52.1139C53.5202 52.2554 53.4226 52.3261 53.2808 52.3261H50.3814C50.204 52.3261 50.0533 52.273 49.9292 52.1669C49.8228 52.0432 49.7784 51.9016 49.7962 51.7425C49.8139 51.265 50.0444 50.7345 50.4878 50.1509C50.9488 49.5673 51.6404 49.0633 52.5626 48.6389C53.5024 48.2145 54.6551 48.0023 56.0206 48.0023C58.2018 48.0023 59.8155 48.4887 60.8618 49.4612C61.908 50.4162 62.4312 51.7072 62.4312 53.3341V61.3981C62.4312 61.575 62.3691 61.7342 62.245 61.8755C62.1208 61.9995 61.9612 62.0612 61.7662 62.0612H58.6806C58.5032 62.0612 58.3436 61.9995 58.2018 61.8755C58.0776 61.7342 58.0156 61.575 58.0156 61.3981V60.4696C57.6254 61.018 57.0757 61.4689 56.3664 61.8225C55.6748 62.1586 54.8502 62.3265 53.8926 62.3265ZM55.1428 59.3025C55.9585 59.3025 56.6146 59.0372 57.1112 58.5067C57.6254 57.9762 57.8826 57.1982 57.8826 56.1724V55.801L55.6216 56.1989C54.0256 56.482 53.2276 57.039 53.2276 57.8701C53.2276 58.3123 53.4138 58.6659 53.7862 58.9311C54.1586 59.1788 54.6108 59.3025 55.1428 59.3025ZM68.284 62.0612C68.0357 62.0612 67.8407 62.0082 67.6988 61.9021C67.5747 61.7783 67.4771 61.6103 67.4062 61.3981L63.5758 49.1164L63.5226 48.8511C63.5226 48.692 63.5847 48.5593 63.7088 48.4532C63.8329 48.3295 63.9748 48.2675 64.1344 48.2675H66.8742C67.087 48.2675 67.2643 48.3295 67.4062 48.4532C67.5481 48.5593 67.6367 48.6832 67.6722 48.8246L69.9066 56.4111L72.3006 48.8511C72.3361 48.7098 72.4247 48.5771 72.5666 48.4532C72.7085 48.3295 72.8947 48.2675 73.1252 48.2675H74.8808C75.1113 48.2675 75.2975 48.3295 75.4394 48.4532C75.5813 48.5771 75.6699 48.7098 75.7054 48.8511L78.0994 56.4111L80.3338 48.8246C80.3693 48.6832 80.4579 48.5593 80.5998 48.4532C80.7417 48.3295 80.919 48.2675 81.1318 48.2675H83.8716C84.0312 48.2675 84.1731 48.3295 84.2972 48.4532C84.4213 48.5593 84.4834 48.692 84.4834 48.8511L84.4302 49.1164L80.5998 61.3981C80.5289 61.6103 80.4225 61.7783 80.2806 61.9021C80.1565 62.0082 79.9703 62.0612 79.722 62.0612H77.328C76.8669 62.0612 76.5743 61.8403 76.4502 61.3981L74.003 54.1299L71.5558 61.3981C71.4317 61.8403 71.1391 62.0612 70.678 62.0612H68.284ZM86.5819 62.0612C86.3868 62.0612 86.2272 61.9995 86.1031 61.8755C85.9789 61.7518 85.9169 61.5927 85.9169 61.3981V48.9307C85.9169 48.7363 85.9789 48.5771 86.1031 48.4532C86.2272 48.3295 86.3868 48.2675 86.5819 48.2675H89.6409C89.8359 48.2675 89.9955 48.3295 90.1197 48.4532C90.2615 48.5771 90.3325 48.7363 90.3325 48.9307V49.9387C90.8113 49.3551 91.4231 48.8865 92.1679 48.5328C92.9304 48.1792 93.7905 48.0023 94.7481 48.0023C96.3086 48.0023 97.5765 48.5328 98.5519 49.5939C99.5272 50.6373 100.015 52.1051 100.015 53.9972V61.3981C100.015 61.575 99.9528 61.7342 99.8287 61.8755C99.7045 61.9995 99.5449 62.0612 99.3499 62.0612H95.9983C95.8209 62.0612 95.6613 61.9995 95.5195 61.8755C95.3953 61.7342 95.3333 61.575 95.3333 61.3981V54.1564C95.3333 53.3253 95.1293 52.6887 94.7215 52.2465C94.3136 51.7868 93.7284 51.5568 92.9659 51.5568C92.2211 51.5568 91.6359 51.7868 91.2103 52.2465C90.7847 52.6887 90.5719 53.3253 90.5719 54.1564V61.3981C90.5719 61.575 90.5098 61.7342 90.3857 61.8755C90.2615 61.9995 90.1019 62.0612 89.9069 62.0612H86.5819ZM107.372 62.3265C105.634 62.3265 104.277 61.7872 103.302 60.7084C102.345 59.6121 101.821 58.0736 101.733 56.0928L101.706 55.1644L101.733 54.2094C101.804 52.2995 102.327 50.7875 103.302 49.6734C104.295 48.5593 105.652 48.0023 107.372 48.0023C108.986 48.0023 110.289 48.5241 111.282 49.5673V43.8907C111.282 43.6963 111.344 43.5371 111.468 43.4132C111.592 43.2895 111.752 43.2275 111.947 43.2275H115.192C115.387 43.2275 115.547 43.2895 115.671 43.4132C115.795 43.5371 115.857 43.6963 115.857 43.8907V61.3981C115.857 61.575 115.795 61.7342 115.671 61.8755C115.547 61.9995 115.387 62.0612 115.192 62.0612H112.187C112.009 62.0612 111.849 61.9995 111.708 61.8755C111.583 61.7342 111.522 61.575 111.522 61.3981V60.5492C110.546 61.7342 109.163 62.3265 107.372 62.3265ZM108.835 58.772C109.633 58.772 110.227 58.5245 110.617 58.0292C111.007 57.5165 111.229 56.8621 111.282 56.0663C111.3 55.8364 111.309 55.5005 111.309 55.0583C111.309 54.6339 111.3 54.3068 111.282 54.0768C111.247 53.3519 111.025 52.7505 110.617 52.273C110.209 51.7955 109.615 51.5568 108.835 51.5568C108.001 51.5568 107.399 51.8044 107.026 52.2995C106.671 52.7948 106.468 53.4756 106.414 54.3421C106.396 54.519 106.388 54.793 106.388 55.1644C106.388 55.5357 106.396 55.8099 106.414 55.9867C106.468 56.8533 106.671 57.5341 107.026 58.0292C107.399 58.5245 108.001 58.772 108.835 58.772ZM124.578 62.3265C122.45 62.3265 120.775 61.7518 119.551 60.6023C118.327 59.4529 117.689 57.7818 117.636 55.5888V54.6604C117.707 52.5737 118.354 50.9467 119.578 49.7795C120.819 48.5948 122.477 48.0023 124.552 48.0023C126.059 48.0023 127.327 48.3119 128.356 48.9307C129.402 49.5321 130.182 50.3631 130.696 51.4242C131.228 52.4852 131.494 53.7054 131.494 55.0848V55.7214C131.494 55.8984 131.432 56.0576 131.308 56.1989C131.184 56.3228 131.024 56.3846 130.829 56.3846H122.317V56.5703C122.353 57.4015 122.557 58.0736 122.929 58.5863C123.302 59.0992 123.842 59.3555 124.552 59.3555C124.995 59.3555 125.358 59.2672 125.642 59.0903C125.926 58.8959 126.183 58.6659 126.414 58.4006C126.573 58.2062 126.697 58.0912 126.786 58.0558C126.893 58.0027 127.052 57.9762 127.265 57.9762H130.563C130.723 57.9762 130.856 58.0292 130.962 58.1353C131.086 58.2238 131.149 58.3475 131.149 58.5067C131.149 58.9665 130.883 59.4971 130.351 60.0983C129.836 60.6997 129.082 61.2213 128.09 61.6633C127.096 62.1056 125.926 62.3265 124.578 62.3265ZM126.813 53.7585V53.7054C126.813 52.839 126.609 52.1582 126.201 51.6629C125.811 51.1502 125.261 50.8936 124.552 50.8936C123.86 50.8936 123.31 51.1502 122.903 51.6629C122.512 52.1582 122.317 52.839 122.317 53.7054V53.7585H126.813ZM133.855 62.0612C133.66 62.0612 133.5 61.9995 133.376 61.8755C133.252 61.7518 133.19 61.5927 133.19 61.3981V48.9307C133.19 48.7363 133.252 48.5771 133.376 48.4532C133.5 48.3295 133.66 48.2675 133.855 48.2675H136.914C137.109 48.2675 137.269 48.3384 137.393 48.4797C137.535 48.6037 137.606 48.7539 137.606 48.9307V49.9917C138.581 48.8424 139.893 48.2675 141.542 48.2675H142.713C142.908 48.2675 143.067 48.3295 143.192 48.4532C143.316 48.5771 143.378 48.7363 143.378 48.9307V51.6629C143.378 51.8399 143.316 51.999 143.192 52.1404C143.067 52.2643 142.908 52.3261 142.713 52.3261H140.133C139.406 52.3261 138.838 52.5296 138.43 52.9362C138.04 53.3254 137.845 53.8824 137.845 54.6073V61.3981C137.845 61.5927 137.774 61.7518 137.632 61.8755C137.508 61.9995 137.348 62.0612 137.153 62.0612H133.855Z" fill="white"/>
</g>
<defs>
<clipPath id="clip0">
<rect width="152" height="72" fill="white"/>
</clipPath>
</defs>
</svg>
