<svg width="157" height="44" viewBox="0 0 157 44" fill="none" xmlns="http://www.w3.org/2000/svg">
<ellipse rx="3.90677" ry="5.6275" transform="matrix(0.8668 -0.498655 0.570885 0.82103 6.59905 22.471)" fill="#A36A00"/>
<ellipse rx="3.90677" ry="5.6275" transform="matrix(0.8668 -0.498655 0.570885 0.82103 9.08782 12.4134)" fill="#A36A00"/>
<ellipse rx="3.90677" ry="5.6275" transform="matrix(0.8668 -0.498655 0.570885 0.82103 19.247 6.5687)" fill="#A36A00"/>
<ellipse rx="3.90677" ry="5.6275" transform="matrix(0.8668 -0.498655 0.570885 0.82103 30.3056 8.83432)" fill="#A36A00"/>
<path d="M31.9568 18.6887C36.0643 23.4372 30.2915 23.3607 25.9436 26.4723C21.5958 29.5839 20.7532 45.4085 16.6457 40.66C12.5382 35.9115 12.2992 18.8366 16.647 15.725C20.9949 12.6133 27.8493 13.9403 31.9568 18.6887Z" fill="#A36A00"/>
<path d="M38.1206 43.32C36.99 43.32 35.9553 43.1067 35.0166 42.68C34.0993 42.232 33.374 41.6347 32.8406 40.888C32.3286 40.12 32.0726 39.2773 32.0726 38.36C32.0726 36.888 32.67 35.704 33.8646 34.808C35.0806 33.912 36.7446 33.2933 38.8566 32.952L42.8566 32.344V31.896C42.8566 31.0853 42.686 30.488 42.3446 30.104C42.0033 29.72 41.4273 29.528 40.6166 29.528C40.126 29.528 39.7206 29.6133 39.4006 29.784C39.0806 29.9547 38.75 30.1893 38.4086 30.488C38.11 30.744 37.886 30.9147 37.7366 31C37.6726 31.1707 37.5553 31.256 37.3846 31.256H33.8966C33.6833 31.256 33.502 31.192 33.3526 31.064C33.2246 30.9147 33.1713 30.744 33.1926 30.552C33.214 29.976 33.4913 29.336 34.0246 28.632C34.5793 27.928 35.4113 27.32 36.5206 26.808C37.6513 26.296 39.038 26.04 40.6806 26.04C43.3046 26.04 45.246 26.6267 46.5046 27.8C47.7633 28.952 48.3926 30.5093 48.3926 32.472V42.2C48.3926 42.4133 48.318 42.6053 48.1686 42.776C48.0193 42.9253 47.8273 43 47.5926 43H43.8806C43.6673 43 43.4753 42.9253 43.3046 42.776C43.1553 42.6053 43.0806 42.4133 43.0806 42.2V41.08C42.6113 41.7413 41.95 42.2853 41.0966 42.712C40.2646 43.1173 39.2726 43.32 38.1206 43.32ZM39.6246 39.672C40.606 39.672 41.3953 39.352 41.9926 38.712C42.6113 38.072 42.9206 37.1333 42.9206 35.896V35.448L40.2006 35.928C38.2806 36.2693 37.3206 36.9413 37.3206 37.944C37.3206 38.4773 37.5446 38.904 37.9926 39.224C38.4406 39.5227 38.9846 39.672 39.6246 39.672ZM55.7536 43C55.455 43 55.2203 42.936 55.0496 42.808C54.9003 42.6587 54.783 42.456 54.6976 42.2L50.0896 27.384L50.0256 27.064C50.0256 26.872 50.1003 26.712 50.2496 26.584C50.399 26.4347 50.5696 26.36 50.7616 26.36H54.0576C54.3136 26.36 54.527 26.4347 54.6976 26.584C54.8683 26.712 54.975 26.8613 55.0176 27.032L57.7056 36.184L60.5856 27.064C60.6283 26.8933 60.735 26.7333 60.9056 26.584C61.0763 26.4347 61.3003 26.36 61.5776 26.36H63.6896C63.967 26.36 64.191 26.4347 64.3616 26.584C64.5323 26.7333 64.639 26.8933 64.6816 27.064L67.5616 36.184L70.2496 27.032C70.2923 26.8613 70.399 26.712 70.5696 26.584C70.7403 26.4347 70.9536 26.36 71.2096 26.36H74.5056C74.6976 26.36 74.8683 26.4347 75.0176 26.584C75.167 26.712 75.2416 26.872 75.2416 27.064L75.1776 27.384L70.5696 42.2C70.4843 42.456 70.3563 42.6587 70.1856 42.808C70.0363 42.936 69.8123 43 69.5136 43H66.6336C66.079 43 65.727 42.7333 65.5776 42.2L62.6336 33.432L59.6896 42.2C59.5403 42.7333 59.1883 43 58.6336 43H55.7536ZM78.0861 43C77.8515 43 77.6595 42.9253 77.5101 42.776C77.3608 42.6267 77.2861 42.4347 77.2861 42.2V27.16C77.2861 26.9253 77.3608 26.7333 77.5101 26.584C77.6595 26.4347 77.8515 26.36 78.0861 26.36H81.7661C82.0008 26.36 82.1928 26.4347 82.3421 26.584C82.5128 26.7333 82.5981 26.9253 82.5981 27.16V28.376C83.1741 27.672 83.9101 27.1067 84.8061 26.68C85.7235 26.2533 86.7581 26.04 87.9101 26.04C89.7875 26.04 91.3128 26.68 92.4861 27.96C93.6595 29.2187 94.2461 30.9893 94.2461 33.272V42.2C94.2461 42.4133 94.1715 42.6053 94.0221 42.776C93.8728 42.9253 93.6808 43 93.4461 43H89.4141C89.2008 43 89.0088 42.9253 88.8381 42.776C88.6888 42.6053 88.6141 42.4133 88.6141 42.2V33.464C88.6141 32.4613 88.3688 31.6933 87.8781 31.16C87.3875 30.6053 86.6835 30.328 85.7661 30.328C84.8701 30.328 84.1661 30.6053 83.6541 31.16C83.1421 31.6933 82.8861 32.4613 82.8861 33.464V42.2C82.8861 42.4133 82.8115 42.6053 82.6621 42.776C82.5128 42.9253 82.3208 43 82.0861 43H78.0861ZM103.417 43.32C101.326 43.32 99.694 42.6693 98.5206 41.368C97.3686 40.0453 96.7393 38.1893 96.6326 35.8L96.6006 34.68L96.6326 33.528C96.718 31.224 97.3473 29.4 98.5206 28.056C99.7153 26.712 101.347 26.04 103.417 26.04C105.358 26.04 106.926 26.6693 108.121 27.928V21.08C108.121 20.8453 108.195 20.6533 108.345 20.504C108.494 20.3547 108.686 20.28 108.921 20.28H112.825C113.059 20.28 113.251 20.3547 113.401 20.504C113.55 20.6533 113.625 20.8453 113.625 21.08V42.2C113.625 42.4133 113.55 42.6053 113.401 42.776C113.251 42.9253 113.059 43 112.825 43H109.209C108.995 43 108.803 42.9253 108.633 42.776C108.483 42.6053 108.409 42.4133 108.409 42.2V41.176C107.235 42.6053 105.571 43.32 103.417 43.32ZM105.177 39.032C106.137 39.032 106.851 38.7333 107.321 38.136C107.79 37.5173 108.057 36.728 108.121 35.768C108.142 35.4907 108.153 35.0853 108.153 34.552C108.153 34.04 108.142 33.6453 108.121 33.368C108.078 32.4933 107.811 31.768 107.321 31.192C106.83 30.616 106.115 30.328 105.177 30.328C104.174 30.328 103.449 30.6267 103.001 31.224C102.574 31.8213 102.329 32.6427 102.265 33.688C102.243 33.9013 102.233 34.232 102.233 34.68C102.233 35.128 102.243 35.4587 102.265 35.672C102.329 36.7173 102.574 37.5387 103.001 38.136C103.449 38.7333 104.174 39.032 105.177 39.032ZM124.436 43.32C121.876 43.32 119.86 42.6267 118.388 41.24C116.916 39.8533 116.148 37.8373 116.084 35.192V34.072C116.169 31.5547 116.948 29.592 118.42 28.184C119.913 26.7547 121.908 26.04 124.404 26.04C126.217 26.04 127.743 26.4133 128.98 27.16C130.239 27.8853 131.177 28.888 131.796 30.168C132.436 31.448 132.756 32.92 132.756 34.584V35.352C132.756 35.5653 132.681 35.7573 132.532 35.928C132.383 36.0773 132.191 36.152 131.956 36.152H121.716V36.376C121.759 37.3787 122.004 38.1893 122.452 38.808C122.9 39.4267 123.551 39.736 124.404 39.736C124.937 39.736 125.375 39.6293 125.716 39.416C126.057 39.1813 126.367 38.904 126.644 38.584C126.836 38.3493 126.985 38.2107 127.092 38.168C127.22 38.104 127.412 38.072 127.668 38.072H131.636C131.828 38.072 131.988 38.136 132.116 38.264C132.265 38.3707 132.34 38.52 132.34 38.712C132.34 39.2667 132.02 39.9067 131.38 40.632C130.761 41.3573 129.855 41.9867 128.66 42.52C127.465 43.0533 126.057 43.32 124.436 43.32ZM127.124 32.984V32.92C127.124 31.8747 126.879 31.0533 126.388 30.456C125.919 29.8373 125.257 29.528 124.404 29.528C123.572 29.528 122.911 29.8373 122.42 30.456C121.951 31.0533 121.716 31.8747 121.716 32.92V32.984H127.124ZM135.916 43C135.681 43 135.489 42.9253 135.34 42.776C135.191 42.6267 135.116 42.4347 135.116 42.2V27.16C135.116 26.9253 135.191 26.7333 135.34 26.584C135.489 26.4347 135.681 26.36 135.916 26.36H139.596C139.831 26.36 140.023 26.4453 140.172 26.616C140.343 26.7653 140.428 26.9467 140.428 27.16V28.44C141.601 27.0533 143.18 26.36 145.164 26.36H146.572C146.807 26.36 146.999 26.4347 147.148 26.584C147.297 26.7333 147.372 26.9253 147.372 27.16V30.456C147.372 30.6693 147.297 30.8613 147.148 31.032C146.999 31.1813 146.807 31.256 146.572 31.256H143.468C142.593 31.256 141.911 31.5013 141.42 31.992C140.951 32.4613 140.716 33.1333 140.716 34.008V42.2C140.716 42.4347 140.631 42.6267 140.46 42.776C140.311 42.9253 140.119 43 139.884 43H135.916Z" fill="#A36A00"/>
</svg>
