<svg width="581" height="274" viewBox="0 0 581 274" fill="none" xmlns="http://www.w3.org/2000/svg">
<rect width="581" height="274" fill="#DAE3EA"/>
<path fill-rule="evenodd" clip-rule="evenodd" d="M318 116V158C318 161.3 315.3 164 312 164H270C266.7 164 264 161.3 264 158V116C264 112.7 266.7 110 270 110H312C315.3 110 318 112.7 318 116ZM288 150.53L281.7 142.94C281.07 142.19 279.93 142.22 279.36 143L271.89 152.6C271.11 153.59 271.8 155.03 273.06 155.03H309.03C310.26 155.03 310.98 153.62 310.23 152.63L299.7 138.59C299.1 137.78 297.9 137.78 297.3 138.56L288 150.53Z" fill="#94A3B1"/>
</svg>
